<?xml version="1.0" standalone="no"?><!DOCTYPE svg PUBLIC "-//W3C//DTD SVG 1.1//EN" "http://www.w3.org/Graphics/SVG/1.1/DTD/svg11.dtd"><svg t="1764665645118" class="icon" viewBox="0 0 1024 1024" version="1.1" xmlns="http://www.w3.org/2000/svg" p-id="8227" xmlns:xlink="http://www.w3.org/1999/xlink" width="200" height="200"><path d="M512 0a512 512 0 0 1 512 512l-0.256 16A512 512 0 0 1 0 512l0.256-16A512 512 0 0 1 512 0z m132.224 429.184c-111.168 0-198.656 75.136-198.656 167.232 0 92.48 87.488 167.36 198.656 167.36 23.296 0 46.848-5.888 70.144-11.52l64.192 34.752-17.6-57.728c46.72-34.752 81.664-80.96 81.664-132.864 0-92.16-93.376-167.232-198.4-167.232zM416.448 256c-128.384 0-233.6 86.336-233.6 196.16 0 63.36 34.88 115.456 93.376 155.84l-23.36 69.44 81.728-40.64c29.184 5.632 52.736 11.52 81.728 11.52l10.88-0.256 10.88-0.768a164.736 164.736 0 0 1-7.168-48.192c0-100.736 87.552-182.464 198.656-182.464 7.488 0 14.912 0.64 22.464 1.28C631.936 324.928 531.264 256 416.512 256z m163.456 265.664c17.6 0 29.184 11.52 29.184 22.976 0 11.52-11.712 22.976-29.184 22.976-11.712 0-23.296-11.52-23.296-23.04 0-11.456 11.584-22.912 23.296-22.912z m128.576 0c17.472 0 29.184 11.52 29.184 22.976 0 11.52-11.968 22.976-29.184 22.976h-0.064c-11.648 0-23.232-11.52-23.232-23.04 0-11.456 11.584-22.912 23.296-22.912zM340.288 354.176c17.536 0 29.184 11.456 29.184 28.8 0 17.088-11.52 28.8-29.184 28.8-17.6 0-35.2-11.52-35.2-28.8 0-17.344 17.6-28.8 35.2-28.8z m163.52-0.128c17.536 0 29.184 11.52 29.184 28.8s-11.648 28.8-29.184 28.8c-17.664 0-35.2-11.52-35.2-28.8 0.32-17.28 17.856-28.8 35.2-28.8z" fill="#08A128" p-id="8228"></path></svg>